<?xml version="1.0" encoding="utf-8"?>
<!-- Generator: Adobe Illustrator 21.0.2, SVG Export Plug-In . SVG Version: 6.00 Build 0)  -->
<svg version="1.1" id="Layer_1" xmlns="http://www.w3.org/2000/svg" xmlns:xlink="http://www.w3.org/1999/xlink" x="0px" y="0px"
	 viewBox="0 0 800 164" style="enable-background:new 0 0 800 164;" xml:space="preserve">
<style type="text/css">
	.st0{fill:#7AADAD;}
	.st1{fill:#898989;}
</style>
<title>6</title>
<path class="st0" d="M165.8,154.8"/>
<path class="st1" d="M1244,119.3c1.8-13.7-8.4-26.1-22.3-26.9c-0.1,0-0.1,0-0.2,0c-7.4-0.4-19-12-28.8-12.4s-61.3-16.7-77.8-16.7
	c-16.4,0-61.1-14.2-69.9-17.2s-25.5-11.8-30-13.1c-4.4-1.3-1.5-1.9-6.3-3.9c-4.8-1.9-11.8-1.3-18.7-2.6s-14.6-2.4-18.3-2.4
	s-8.5-2.4-13.4-2.4s-10-3.4-17-4.1c-6.9-0.6-13.7-4.5-19.3-6.6s-25.6-0.2-27.9,0c-2.3,0.2-6.4,4.2-9.2,5.4
	c-2.7,1.2-8.1,0.7-11.3,0.9c-3.3,0.1-5.3,2.2-6.1,2.4c-0.8,0.1-6.3,2.5-8.8,3.6c-2.5,1.2-8.4,3.2-11.9,3.4
	c-3.5,0.2-9.4,2.4-13.2,4.3c-3.8,1.9-14.8,0-20.3,0s-8.8,3.5-16.3,5.5c-7.5,1.9-53.9,24.8-60.8,28c-7,3.2-20.5,2.6-30.4,4.2
	c-9.9,1.6-16.1,10.9-22.8,10.9c-6.8,0-18.8,5.1-23.3,7.7s-9-3.5-16,0s-46,17.4-61.5,19s-22.8,1-33.5,3.9
	c-10.6,2.9-29.1,3.2-46.4,3.2c-17.2,0-40.9,3.9-53.9,6.1c-1.7,0.3-3.5,0.6-5.5,1c-2.8,0.6-5.6,0.6-8.4,0.2c-2-0.3-3.8-0.6-5.5-0.8
	c-13.2-1.6-36.9-4.4-54.2-3.6c-17.2,0.8-35.7,1.3-46.5-1.1s-18.1-1.4-33.6-2.3s-55.2-12.9-62.3-16.1s-11.4,3.1-16,0.7
	s-16.8-7-23.6-6.6c-6.8,0.3-13.3-8.7-23.3-9.9c-10-1.1-23.5,0.1-30.6-2.8S84.4,54.6,76.8,53.1c-7.6-1.6-11-5-16.6-4.7
	c-5.5,0.3-16.4,2.7-20.3,0.9s-9.9-3.6-13.4-3.7c-3.5-0.1-9.5-1.8-12.1-2.9c-2.6-1.1-8.2-3.2-9-3.2c-0.8-0.1-2.9-2.1-6.2-2.1
	s-8.6,0.7-11.4-0.3c-2.8-1.1-7.1-4.8-9.4-4.9s-22.4-1.1-27.9,1.3s-12.1,6.6-19,7.5c-6.9,1-11.9,4.6-16.8,4.9
	c-4.9,0.2-9.6,2.8-13.3,3c-3.7,0.2-11.4,1.6-18.2,3.2c-6.8,1.6-13.9,1.3-18.6,3.4c-4.7,2.2-1.8,2.7-6.1,4.1
	c-4.4,1.5-20.6,11-29.3,14.4s-52.7,19.6-69.1,20.4s-67.1,19.4-76.9,20.3c-9.8,0.9-20.8,13-28.2,13.7c-0.1,0-0.1,0-0.2,0
	c-13.8,1.4-23.5,14.3-21,27.9c0.3,1.9,0.7,3.8,1.1,5.8s0.5,4,0.3,6l-1.9,26.5c-1,14.2,10.5,26.1,24.7,25.7l782-26.2l782.4-9.8
	c14.2-0.2,25.2-12.6,23.5-26.8l-3.1-26.4c-0.2-2-0.2-4,0.1-6C1243.5,123.2,1243.8,121.2,1244,119.3z"/>
</svg>
