<?xml version="1.0" encoding="utf-8"?>
<!-- Generator: Adobe Illustrator 21.1.0, SVG Export Plug-In . SVG Version: 6.00 Build 0)  -->
<svg version="1.1" id="Layer_1" xmlns="http://www.w3.org/2000/svg" xmlns:xlink="http://www.w3.org/1999/xlink" x="0px" y="0px"
	 viewBox="0 0 800 117" style="enable-background:new 0 0 800 117;" xml:space="preserve">
<style type="text/css">
	.st0{fill:#FFFFFF;}
</style>
<title>6</title>
<g>
	<path class="st0" d="M254.1,107.3c-14.6,2.5,13.9-3.2,44.9-3.9c29.4-0.6,41.7,11.4,75.7,8.9c14.9-1.1,27.2,0.6,34.9,0.2l4.8-0.3
		c12.1-0.9,28.2-3.1,35.9-4.8s20.7-2,29-0.6c8.3,1.5,24.9,2,37,1.2l34.8-2.3c12.1-0.8,27.5-2.8,34.3-4.5c6.8-1.6,13-3.1,13.8-3.3
		s10.2-1.5,18.9-2.7c8.8-1.2,21.3-1.1,27.8,0.2c6.5,1.3,15.4,3.8,19.7,5.6c4.3,1.8,12.2,3.9,17.6,4.7c5.4,0.8,16.6,2.4,24.8,3.5
		c8.3,1.1,19.2,1.4,24.3,0.6s13.7-2.4,19.1-3.5c5.4-1.1,13.3-4.1,17.6-6.5s11.3-5.4,15.5-6.5c4.3-1.1,10.6-6.6,14-12.1
		s8.1-10.7,10.4-11.5c2.3-0.8,6-5.2,8.3-9.7s4.1,1.6,4.1,13.7v46.5c0,0.3-0.2,0.5-0.5,0.5c0-0.2-827.5-0.2-827.5-0.2V85.3
		c0-12.1,7.7-18.9,17.1-15.2c9.4,3.7,20.8,10.1,25.4,14.2s15.3,7.8,23.8,8.3s20.2,2.6,25.9,4.7s20.3,3.8,32.3,3.8h17.1
		c12.1,0,29,2.1,37.5,4.7s25.4,4.7,37.5,4.7c6,0,12.1,0,18.1,0C236.7,109.4,245.4,108.3,254.1,107.3z"/>
	<path class="st0" d="M300,95.5"/>
</g>
</svg>
