<?xml version="1.0" encoding="utf-8"?>
<!-- Generator: Adobe Illustrator 21.0.2, SVG Export Plug-In . SVG Version: 6.00 Build 0)  -->
<svg version="1.1" id="Layer_1" xmlns="http://www.w3.org/2000/svg" xmlns:xlink="http://www.w3.org/1999/xlink" x="0px" y="0px"
	 viewBox="0 0 800 117" style="enable-background:new 0 0 800 117;" xml:space="preserve">
<style type="text/css">
	.st0{fill:#FFFFFF;}
</style>
<title>6</title>
<g>
	<path class="st0" d="M247.7,107.3c-14.8,2.5,14.1-3.2,45.4-3.9c29.7-0.6,42.2,11.4,76.6,8.9c15.1-1.1,27.5,0.6,35.3,0.2l4.9-0.3
		c12.2-0.9,28.5-3.1,36.3-4.8s20.9-2,29.3-0.6c8.4,1.5,25.2,2,37.4,1.2l35.2-2.3c12.2-0.8,27.8-2.8,34.7-4.5
		c6.9-1.6,13.1-3.1,14-3.3s10.3-1.5,19.1-2.7c8.9-1.2,21.5-1.1,28.1,0.2c6.6,1.3,15.6,3.8,19.9,5.6c4.3,1.8,12.3,3.9,17.8,4.7
		c5.5,0.8,16.8,2.4,25.1,3.5c8.4,1.1,19.4,1.4,24.6,0.6c5.2-0.8,13.9-2.4,19.3-3.5c5.5-1.1,13.4-4.1,17.8-6.5
		c4.3-2.4,11.4-5.4,15.7-6.5c4.3-1.1,10.7-6.6,14.2-12.1c3.4-5.5,8.2-10.7,10.5-11.5c2.3-0.8,6.1-5.2,8.4-9.7
		c2.3-4.5,4.1,1.6,4.1,13.7v46.5c0,0.3-0.2,0.5-0.5,0.5c0-0.2-836.8-0.2-836.8-0.2V85.3c0-12.1,7.8-18.9,17.3-15.2
		c9.5,3.7,21,10.1,25.7,14.2s15.5,7.8,24.1,8.3s20.4,2.6,26.2,4.7c5.8,2.1,20.5,3.8,32.7,3.8h17.3c12.2,0,29.3,2.1,37.9,4.7
		c8.6,2.6,25.7,4.7,37.9,4.7c6.1,0,12.2,0,18.3,0C230.1,109.4,238.9,108.3,247.7,107.3z"/>
	<path class="st0" d="M294.1,95.5"/>
</g>
</svg>
